# xmcd
#
# Track frame offsets: 
#        150
#        13010
#        31115
#        44885
#        57097
#        69660
#        83475
#        100402
#        111410
#        124282
#        136005
#        150438
#        161941
#        173191
#        185606
#        197244
#        212249
#        223420
#
# Disc length: 3147 seconds
#
# Revision: 0
# Processed by: cddbd v1.5.2PL0 Copyright (c) Steve Scherf et al.
# Submitted via: ExactAudioCopyFreeDBPlugin 1.0
#
DISCID=0e0c4912
DTITLE=Various Artist - Imagine The Blues CD1
DYEAR=2011
DGENRE=Blues
TTITLE0=Muddy Waters - Hoochie Coochie
TTITLE1=John Lee Hooker - Mean Minstreatin'
TTITLE2=B.B. King - Bad Luck
TTITLE3=Lightnin’ Hopkins - Lonesome In Your Home
TTITLE4=Howlin' Wolf - Forty Four
TTITLE5=Little Walter - Blues With A Feeling
TTITLE6=Big Joe Turner - Roll' Em Pete
TTITLE7=Roosevelt Sykes - I'm Tired
TTITLE8=Albert King - Be On Your Merry Way
TTITLE9=T-Bone Walker - T-Bone Blues Special
TTITLE10=Muddy Waters - Baby Please Don't Go
TTITLE11=Lightnin’ Hopkins - Highway Blues
TTITLE12=Howlin' Wolf - Cadillac Daddy
TTITLE13=John Lee Hooker - Walking The Boogie
TTITLE14=B.B. King - Hard Working Woman
TTITLE15=Big Bill Broonzy - House Rent Stomp
TTITLE16=Wynonie Harris - Lovin' Machine
TTITLE17=Jimmy Yancey - How Long Blues
EXTD=
EXTT0=
EXTT1=
EXTT2=
EXTT3=
EXTT4=
EXTT5=
EXTT6=
EXTT7=
EXTT8=
EXTT9=
EXTT10=
EXTT11=
EXTT12=
EXTT13=
EXTT14=
EXTT15=
EXTT16=
EXTT17=
PLAYORDER=
